<svg xmlns="http://www.w3.org/2000/svg" viewBox="0 0 95.71 108.62"><defs><style>.cls-1{fill:#f6f6f6;}</style></defs><title>Resurs 1</title><g id="Lager_2" data-name="Lager 2"><g id="Lager_1-2" data-name="Lager 1"><path class="cls-1" d="M49.6,0a2.46,2.46,0,0,1,1.2,2.3c0,5.3,0,10.59,0,15.89,0,.85-.12,1.73-1,2A2.69,2.69,0,0,1,48,20.18c-.82-.34-.9-1.19-.9-2V8c0-1.84,0-3.68,0-5.51A2.58,2.58,0,0,1,48.33,0Z"/><path class="cls-1" d="M69.64,86.29c4.74-2.23,9.41-4.47,14.12-6.64a8.64,8.64,0,0,1,9.36,1,10.08,10.08,0,0,1,2,2.16c1,1.33.72,2.29-.67,3.19q-6.92,4.5-13.86,9c-5.34,3.45-10.69,6.87-16,10.36a21.38,21.38,0,0,1-10.49,3.21c-4,.3-7.73-.95-11.49-2L26.24,102a6.41,6.41,0,0,0-5,.57c-.49.28-1,.56-1.5.8-1.14.55-2.2,1-2.06,2.7.09,1-.82,1.59-1.9,1.57-4.59-.1-9.19-.21-13.78-.36-1.36,0-2-.79-2-2.2q.24-9.22.5-18.44c.11-3.85.24-7.7.33-11.55.05-1.88.67-2.48,2.51-2.42q6.35.18,12.71.33c2,0,2.59.67,2.55,2.64,0,.66,0,1.31,0,2,1.47-.52,2.87-1.1,4.31-1.52a22.51,22.51,0,0,1,16.75,1.59,16.89,16.89,0,0,0,6.65,2.25c2.44.14,4.88.16,7.31.23s5,0,7.42.28A11.18,11.18,0,0,1,69.64,86.29ZM18,100.15l1.51-.8a10,10,0,0,1,7.78-.83c4,1.13,8.05,2.3,12.1,3.38,3.87,1,7.72,2.25,11.66,2.92A15.39,15.39,0,0,0,62,102.7c9.5-6,18.92-12.2,28.37-18.32.28-.18.53-.39.86-.63a5.44,5.44,0,0,0-6-.82c-2.34,1-4.65,2.19-7,3.29l-7.44,3.52c.06.48.13.9.15,1.32.11,2.11-.49,2.73-2.61,2.68l-11.87-.27c-2.75-.07-5.51-.13-8.26-.25-1.33,0-2.11-.86-2-2s.9-1.71,2.17-1.67l16.53.47c.73,0,1.46,0,2.2,0A7.6,7.6,0,0,0,60,84c-3.14-.08-6.29-.14-9.43-.25-1.83-.06-3.67-.13-5.5-.3-2.72-.26-5.06-1.61-7.5-2.72a19.31,19.31,0,0,0-18.18.75,1.69,1.69,0,0,0-1,1.65c-.05,3.6-.23,7.2-.31,10.8C18,95.93,18,98,18,100.15Zm-3.87,3.61.75-27.27H4.41l-.75,27.27Z"/><path class="cls-1" d="M48.92,75.38a25.84,25.84,0,1,1,25.9-25.62A25.87,25.87,0,0,1,48.92,75.38Zm0-3.65A22.21,22.21,0,1,0,26.7,49.53,22.23,22.23,0,0,0,48.94,71.73Z"/><path class="cls-1" d="M64.14,14.78c0,1.2,0,2.4,0,3.6s-.78,2.16-1.85,2.14a1.89,1.89,0,0,1-1.78-2.1c0-2.51,0-5,0-7.52a1.82,1.82,0,1,1,3.63,0C64.17,12.17,64.14,13.47,64.14,14.78Z"/><path class="cls-1" d="M33.78,14.64c0-1.23,0-2.47,0-3.7s.72-2,1.81-2,1.8.73,1.82,2q.06,3.77,0,7.52a1.83,1.83,0,1,1-3.63,0C33.75,17.18,33.78,15.91,33.78,14.64Z"/><path class="cls-1" d="M41.34,55.82c0-1.53.63-2.31,1.67-2.38s1.81.62,1.92,1.9a4,4,0,0,0,8,.5,4,4,0,0,0-2.59-4.35,8.45,8.45,0,0,0-2.08-.34,7.63,7.63,0,0,1-6.88-6.55,7.52,7.52,0,0,1,4.42-7.92,1.59,1.59,0,0,0,1.12-1.79c0-1.73,1.42-2.78,2.66-1.91a2.39,2.39,0,0,1,.9,1.74c0,1.09.42,1.45,1.37,1.83a7.41,7.41,0,0,1,4.7,6.28,3.08,3.08,0,0,1-.11,1.35,1.64,1.64,0,0,1-1.8,1.17A1.73,1.73,0,0,1,53,43.81c-.08-.44-.09-.91-.21-1.35a4,4,0,0,0-4.59-2.82,4,4,0,0,0-3.27,4.09,4,4,0,0,0,3.7,3.81c4.27.34,7,2.47,7.76,6.08a7.47,7.47,0,0,1-4.91,8.75c-.74.26-1,.59-.94,1.34a2.23,2.23,0,0,1,0,.63,1.81,1.81,0,0,1-1.73,1.8A1.66,1.66,0,0,1,47,64.47c.13-1.57-.68-2.1-1.9-2.75A7.1,7.1,0,0,1,41.34,55.82Z"/></g></g></svg>